<svg width="9" height="9" viewBox="0 0 9 9" fill="none" xmlns="http://www.w3.org/2000/svg">
<path d="M7.24072 8.24072L4.7501 5.7501L2.25947 8.24072C1.91416 8.58603 1.35479 8.58603 1.00947 8.24072C0.66416 7.89541 0.66416 7.33603 1.00947 6.99072L3.5001 4.5001L1.00947 2.00947C0.66416 1.66416 0.66416 1.10479 1.00947 0.759473C1.35479 0.41416 1.91416 0.41416 2.25947 0.759473L4.7501 3.2501L7.24072 0.759473C7.58604 0.41416 8.14541 0.41416 8.49072 0.759473C8.83603 1.10479 8.83603 1.66416 8.49072 2.00947L6.0001 4.5001L8.49072 6.99072C8.83603 7.33603 8.83603 7.89541 8.49072 8.24072C8.14541 8.58603 7.58604 8.58603 7.24072 8.24072Z" fill="#7D7D7D"/>
</svg>
