<svg width="14" height="18" viewBox="0 0 14 18" fill="none" xmlns="http://www.w3.org/2000/svg">
<path d="M12.0635 6.75H11.501V4.5C11.501 2.01825 9.48273 0 7.00098 0C4.51923 0 2.50098 2.01825 2.50098 4.5V6.75H1.93848C1.00848 6.75 0.250977 7.50675 0.250977 8.4375V16.3125C0.250977 17.2432 1.00848 18 1.93848 18H12.0635C12.9935 18 13.751 17.2432 13.751 16.3125V8.4375C13.751 7.50675 12.9935 6.75 12.0635 6.75ZM4.00098 4.5C4.00098 2.8455 5.34648 1.5 7.00098 1.5C8.65548 1.5 10.001 2.8455 10.001 4.5V6.75H4.00098V4.5ZM7.75098 12.5415V14.25C7.75098 14.664 7.41573 15 7.00098 15C6.58623 15 6.25098 14.664 6.25098 14.25V12.5415C5.80473 12.2812 5.50098 11.8027 5.50098 11.25C5.50098 10.4227 6.17373 9.75 7.00098 9.75C7.82823 9.75 8.50098 10.4227 8.50098 11.25C8.50098 11.8027 8.19723 12.2812 7.75098 12.5415Z" fill="#727272" fill-opacity="0.6"/>
</svg>
