<svg width="18" height="18" viewBox="0 0 18 18" fill="none" xmlns="http://www.w3.org/2000/svg">
<g clip-path="url(#clip0_502_17310)">
<path d="M8.11854 8.90765C8.58855 9.221 9.41325 9.22104 9.88336 8.90762C9.88343 8.90758 9.88354 8.90751 9.88361 8.90748L17.8946 3.5668C17.6318 2.80686 16.9095 2.2594 16.0614 2.2594H1.94034C1.09219 2.2594 0.369973 2.80686 0.107178 3.5668L8.1183 8.90751C8.1184 8.90758 8.11847 8.90758 8.11854 8.90765Z" fill="#AAAAAA"/>
<path d="M10.4687 9.78497C10.4686 9.78504 10.4685 9.78512 10.4684 9.78515C10.057 10.0594 9.52892 10.1966 9.00098 10.1966C8.47293 10.1966 7.94502 10.0594 7.53358 9.78511C7.53351 9.78508 7.53347 9.78504 7.5334 9.78501L0.000976562 4.76343V13.8012C0.000976562 14.8705 0.870995 15.7405 1.94042 15.7405H16.0616C17.131 15.7405 18.001 14.8705 18.001 13.8012V4.76343L10.4687 9.78497Z" fill="#AAAAAA"/>
</g>
<defs>
<clipPath id="clip0_502_17310">
<rect width="18" height="18" fill="white" transform="translate(0.000976562)"/>
</clipPath>
</defs>
</svg>
