<svg width="18" height="19" viewBox="0 0 18 19" fill="none" xmlns="http://www.w3.org/2000/svg">
<path d="M10.5043 11.5283C10.0565 11.8268 9.53631 11.9847 9 11.9847C8.46373 11.9847 7.94355 11.8268 7.49573 11.5283L0.119848 6.61089C0.0789258 6.58361 0.0390586 6.55516 0 6.52591V14.5836C0 15.5075 0.749707 16.2406 1.65702 16.2406H16.3429C17.2668 16.2406 18 15.4909 18 14.5836V6.52588C17.9608 6.5552 17.9209 6.58371 17.8799 6.61103L10.5043 11.5283Z" fill="black"/>
<path d="M0.704883 5.73321L8.08077 10.6507C8.35998 10.8368 8.67997 10.9299 8.99996 10.9299C9.31999 10.9299 9.64002 10.8368 9.91923 10.6507L17.2951 5.73321C17.7365 5.43913 18 4.94695 18 4.41573C18 3.50234 17.2569 2.75928 16.3435 2.75928H1.65646C0.743098 2.75931 0 3.50237 0 4.41661C0 4.94695 0.263531 5.43913 0.704883 5.73321Z" fill="black"/>
</svg>
