<svg width="16" height="17" viewBox="0 0 16 17" fill="none" xmlns="http://www.w3.org/2000/svg">
<g clip-path="url(#clip0_2908_4482)">
<path d="M8 0.5C5.67378 0.5 3.78125 2.39253 3.78125 4.71875C3.78125 7.04497 5.67378 8.9375 8 8.9375C10.3262 8.9375 12.2188 7.04497 12.2188 4.71875C12.2188 2.39253 10.3262 0.5 8 0.5Z" fill="black"/>
<path d="M13.2489 11.6936C12.0939 10.5208 10.5628 9.875 8.9375 9.875H7.0625C5.43725 9.875 3.90606 10.5208 2.75106 11.6936C1.60172 12.8606 0.96875 14.401 0.96875 16.0312C0.96875 16.2901 1.17862 16.5 1.4375 16.5H14.5625C14.8214 16.5 15.0312 16.2901 15.0312 16.0312C15.0312 14.401 14.3983 12.8606 13.2489 11.6936Z" fill="black"/>
</g>
<defs>
<clipPath id="clip0_2908_4482">
<rect width="16" height="16" fill="white" transform="translate(0 0.5)"/>
</clipPath>
</defs>
</svg>
